<svg height="512" viewBox="0 0 512 512" width="512" xmlns="http://www.w3.org/2000/svg"><g id="flat"><path d="m320 424h-128l-16-128v-8h160v8z" fill="#533222"/><path d="m256 216.318a200.4 200.4 0 0 0 -79.269-59.738l-.731-.305 1.282-2.564a29.9 29.9 0 0 1 42.609-11.966l4.109 2.573a29.9 29.9 0 0 1 24.875 13.313l7.125 10.687z" fill="#027226"/><path d="m256 187.415a200.4 200.4 0 0 1 79.269-59.738l.731-.305-1.282-2.564a29.9 29.9 0 0 0 -42.609-11.967l-4.109 2.574a29.9 29.9 0 0 0 -24.875 13.313l-7.125 10.687z" fill="#02a437"/><path d="m256 132.275a200.4 200.4 0 0 0 -79.269-59.738l-.731-.306 11.211-9.322a29.9 29.9 0 0 1 28.568-5.374l8.221 2.74a29.894 29.894 0 0 1 24.875 13.313l7.125 10.687z" fill="#027226"/><path d="m256.781 108.275a158.364 158.364 0 0 1 62.642-47.207l.577-.241-8.859-7.367a23.625 23.625 0 0 0 -22.576-4.247l-6.5 2.165a23.625 23.625 0 0 0 -19.653 10.522 33.518 33.518 0 0 0 -5.631 18.6z" fill="#02a437"/><path d="m256 272a8 8 0 0 1 -8-8v-173.725a8 8 0 1 1 16 0v173.725a8 8 0 0 1 -8 8z" fill="#02a437"/><rect fill="#683b0d" height="32" rx="16" width="192" x="160" y="264"/><path d="m213.963 459.547 55.637 10.242 68.367-27.677 63.117-59.512a21.528 21.528 0 0 0 2.959-27.88 21.53 21.53 0 0 0 -29.944-5.513l-54.735 37.715z" fill="#fdc9a6"/><path d="m329.31 413.28a22.235 22.235 0 0 1 -19.95 22.17l-62.46 6.52-18.6-60.31 25.27 1.46q1.4 1.875 2.65 3.85l52.62 4.22a22.224 22.224 0 0 1 16.52 9.55 21.977 21.977 0 0 1 3.95 12.54z" fill="#fdc9a6"/><path d="m256.22 386.97 52.62 4.22a22.224 22.224 0 0 1 16.52 9.55 21.977 21.977 0 0 1 3.95 12.54 22.235 22.235 0 0 1 -19.95 22.17l-62.46 6.52 1.1-41.97z" fill="#e6af89"/><path d="m80 406.124 67.113-46.244a73.634 73.634 0 0 1 55.107-11.78l5.276.972a73.621 73.621 0 0 1 48.723 32.784l52.616 4.222a22.224 22.224 0 0 1 16.523 9.543 22.224 22.224 0 0 1 -15.994 34.713l-62.464 6.517-32.938 22.7-49.046-14.782-39.525 27.231z" fill="#fdc9a6"/></g></svg>